<svg xmlns="http://www.w3.org/2000/svg" width="126" height="53"><path d="M1568.52 5709.26a1.74 1.74 0 1 1 1.74 1.74 1.741 1.741 0 0 1-1.74-1.74Zm-13.71 0a1.74 1.74 0 1 1 1.74 1.74 1.741 1.741 0 0 1-1.74-1.74Zm-13.49 0a1.74 1.74 0 1 1 1.74 1.74 1.741 1.741 0 0 1-1.74-1.74Zm-13.71 0a1.74 1.74 0 1 1 1.74 1.74 1.741 1.741 0 0 1-1.74-1.74Zm-13.5 0a1.745 1.745 0 1 1 1.74 1.74 1.741 1.741 0 0 1-1.74-1.74Zm-13.71 0a1.745 1.745 0 1 1 1.74 1.74 1.741 1.741 0 0 1-1.74-1.74Zm-13.49 0a1.74 1.74 0 1 1 1.74 1.74 1.741 1.741 0 0 1-1.74-1.74Zm-13.71 0a1.74 1.74 0 1 1 1.74 1.74 1.741 1.741 0 0 1-1.74-1.74Zm-13.49 0a1.74 1.74 0 1 1 1.74 1.74 1.741 1.741 0 0 1-1.74-1.74Zm-13.71 0a1.74 1.74 0 1 1 1.74 1.74 1.741 1.741 0 0 1-1.74-1.74Zm122.52-16.51a1.74 1.74 0 1 1 1.74 1.74 1.733 1.733 0 0 1-1.74-1.74Zm-13.71 0a1.74 1.74 0 1 1 1.74 1.74 1.733 1.733 0 0 1-1.74-1.74Zm-13.49 0a1.74 1.74 0 1 1 1.74 1.74 1.733 1.733 0 0 1-1.74-1.74Zm-13.71 0a1.74 1.74 0 1 1 1.74 1.74 1.733 1.733 0 0 1-1.74-1.74Zm-13.5 0a1.745 1.745 0 1 1 1.74 1.74 1.733 1.733 0 0 1-1.74-1.74Zm-13.71 0a1.745 1.745 0 1 1 1.74 1.74 1.733 1.733 0 0 1-1.74-1.74Zm-13.49 0a1.74 1.74 0 1 1 1.74 1.74 1.733 1.733 0 0 1-1.74-1.74Zm-13.71 0a1.74 1.74 0 1 1 1.74 1.74 1.733 1.733 0 0 1-1.74-1.74Zm-13.49 0a1.74 1.74 0 1 1 1.74 1.74 1.733 1.733 0 0 1-1.74-1.74Zm-13.71 0a1.74 1.74 0 1 1 1.74 1.74 1.733 1.733 0 0 1-1.74-1.74Zm122.52-16.5a1.74 1.74 0 1 1 1.74 1.73 1.741 1.741 0 0 1-1.74-1.73Zm-13.71 0a1.74 1.74 0 1 1 1.74 1.73 1.741 1.741 0 0 1-1.74-1.73Zm-13.49 0a1.74 1.74 0 1 1 1.74 1.73 1.741 1.741 0 0 1-1.74-1.73Zm-13.71 0a1.74 1.74 0 1 1 1.74 1.73 1.741 1.741 0 0 1-1.74-1.73Zm-13.5 0a1.745 1.745 0 1 1 1.74 1.73 1.741 1.741 0 0 1-1.74-1.73Zm-13.71 0a1.745 1.745 0 1 1 1.74 1.73 1.741 1.741 0 0 1-1.74-1.73Zm-13.49 0a1.74 1.74 0 1 1 1.74 1.73 1.741 1.741 0 0 1-1.74-1.73Zm-13.71 0a1.74 1.74 0 1 1 1.74 1.73 1.741 1.741 0 0 1-1.74-1.73Zm-13.49 0a1.74 1.74 0 1 1 1.74 1.73 1.741 1.741 0 0 1-1.74-1.73Zm-13.71 0a1.74 1.74 0 1 1 1.74 1.73 1.741 1.741 0 0 1-1.74-1.73Zm122.52-16.51a1.74 1.74 0 1 1 1.74 1.74 1.741 1.741 0 0 1-1.74-1.74Zm-13.71 0a1.74 1.74 0 1 1 1.74 1.74 1.741 1.741 0 0 1-1.74-1.74Zm-13.49 0a1.74 1.74 0 1 1 1.74 1.74 1.741 1.741 0 0 1-1.74-1.74Zm-13.71 0a1.74 1.74 0 1 1 1.74 1.74 1.741 1.741 0 0 1-1.74-1.74Zm-13.5 0a1.745 1.745 0 1 1 1.74 1.74 1.741 1.741 0 0 1-1.74-1.74Zm-13.71 0a1.745 1.745 0 1 1 1.74 1.74 1.741 1.741 0 0 1-1.74-1.74Zm-13.49 0a1.74 1.74 0 1 1 1.74 1.74 1.741 1.741 0 0 1-1.74-1.74Zm-13.71 0a1.74 1.74 0 1 1 1.74 1.74 1.741 1.741 0 0 1-1.74-1.74Zm-13.49 0a1.74 1.74 0 1 1 1.74 1.74 1.741 1.741 0 0 1-1.74-1.74Zm-13.71 0a1.74 1.74 0 1 1 1.74 1.74 1.741 1.741 0 0 1-1.74-1.74Z" transform="translate(-1446 -5658)" style="fill:#fe3e57;fill-rule:evenodd"/></svg>