<?xml version="1.0" encoding="UTF-8"?>
<svg xmlns="http://www.w3.org/2000/svg" xmlns:xlink="http://www.w3.org/1999/xlink" width="17px" height="18px" viewBox="0 0 17 17" version="1.1">
<g id="surface1">
<path style=" stroke:none;fill-rule:nonzero;fill:rgb(0%,0%,0%);fill-opacity:1;" d="M 17 8.691406 C 17 13.390625 13.625 16.734375 8.640625 16.734375 C 3.859375 16.734375 0 13.054688 0 8.5 C 0 3.945312 3.859375 0.265625 8.640625 0.265625 C 10.964844 0.265625 12.925781 1.078125 14.433594 2.421875 L 12.082031 4.574219 C 9.003906 1.746094 3.285156 3.871094 3.285156 8.5 C 3.285156 11.371094 5.691406 13.699219 8.640625 13.699219 C 12.058594 13.699219 13.34375 11.363281 13.542969 10.148438 L 8.640625 10.148438 L 8.640625 7.316406 L 16.863281 7.316406 C 16.945312 7.738281 17 8.144531 17 8.691406 Z M 17 8.691406 "/>
</g>
</svg>
