<svg xmlns="http://www.w3.org/2000/svg" width="16" height="16">
  <path d="M4.6958.0982C3.3934.157 2.2646.4754 1.3532 1.383.4386 2.2954.124 3.4285.0652 4.7172c-.0366.8044-.2507 6.8814.3702 8.475.4187 1.0752 1.2434 1.9018 2.3284 2.3219.5062.1969 1.0841.3303 1.932.3692 7.0886.3208 9.7163.146 10.8244-2.691.1966-.5051.332-1.0824.3693-1.928.324-7.1069-.0525-8.6473-1.288-9.8813C13.6216.4054 12.469-.26 4.6958.0982M4.761 14.454c-.7761-.035-1.1972-.1644-1.4782-.2732-.7069-.2747-1.2378-.8035-1.5109-1.5063-.4728-1.211-.316-6.9623-.2738-7.893.0413-.9116.226-1.7445.8693-2.3877.796-.794 1.8244-1.1832 8.8272-.8672.9137.0414 1.7488.2256 2.3936.8672.796.794 1.1908 1.8303.8692 8.8061-.035.7743-.1648 1.1943-.2738 1.4746-.7204 1.8461-2.3778 2.1027-9.4226 1.7795m6.5108-10.7024c0 .5258.4274.953.9552.953.5277 0 .956-.4272.956-.953 0-.5256-.4283-.9528-.956-.9528-.5278 0-.9552.4272-.9552.9528M3.8902 7.9904c0 2.252 1.83 4.0775 4.0876 4.0775s4.0876-1.8256 4.0876-4.0775c0-2.252-1.8301-4.0766-4.0876-4.0766-2.2576 0-4.0876 1.8247-4.0876 4.0766m1.4344 0c0-1.461 1.1876-2.6466 2.6532-2.6466 1.4655 0 2.6532 1.1856 2.6532 2.6466 0 1.4618-1.1877 2.6474-2.6532 2.6474-1.4656 0-2.6532-1.1856-2.6532-2.6474"/>
</svg>